<svg width="439" height="295" viewBox="0 0 439 295" fill="none" xmlns="http://www.w3.org/2000/svg">
<path d="M256.5 251.526H427.211V293.5H256.5V251.526Z" fill="#2F80ED" stroke="black"/>
<path d="M427.711 76.7435H439V293.403H427.711V76.7435Z" fill="#2863B1"/>
<path d="M278.869 66H439V79.1309H256L278.869 66Z" fill="#2863B1"/>
<path d="M311.851 269.23C311.851 267.417 313.32 265.948 315.133 265.948H414.328C416.141 265.948 417.61 267.417 417.61 269.23C417.61 271.043 416.141 272.513 414.328 272.513H315.133C313.32 272.513 311.851 271.043 311.851 269.23Z" fill="#333333"/>
<path d="M311.851 269.23C311.851 267.417 313.32 265.948 315.133 265.948H414.328C416.141 265.948 417.61 267.417 417.61 269.23C417.61 271.043 416.141 272.513 414.328 272.513H315.133C313.32 272.513 311.851 271.043 311.851 269.23Z" fill="#333333"/>
<path d="M311.851 269.23C311.851 267.417 313.32 265.948 315.133 265.948H414.328C416.141 265.948 417.61 267.417 417.61 269.23C417.61 271.043 416.141 272.513 414.328 272.513H315.133C313.32 272.513 311.851 271.043 311.851 269.23Z" fill="#333333"/>
<path d="M311.851 277.288C311.851 276.299 312.652 275.497 313.641 275.497H415.82C416.809 275.497 417.61 276.299 417.61 277.288C417.61 278.277 416.809 279.078 415.82 279.078H313.641C312.652 279.078 311.851 278.277 311.851 277.288Z" fill="#333333"/>
<path d="M311.851 277.288C311.851 276.299 312.652 275.497 313.641 275.497H415.82C416.809 275.497 417.61 276.299 417.61 277.288C417.61 278.277 416.809 279.078 415.82 279.078H313.641C312.652 279.078 311.851 278.277 311.851 277.288Z" fill="#333333"/>
<path d="M311.851 277.288C311.851 276.299 312.652 275.497 313.641 275.497H415.82C416.809 275.497 417.61 276.299 417.61 277.288C417.61 278.277 416.809 279.078 415.82 279.078H313.641C312.652 279.078 311.851 278.277 311.851 277.288Z" fill="#333333"/>
<path d="M288.179 272.513C288.179 275.206 286.006 277.385 283.331 277.385C280.656 277.385 278.484 275.206 278.484 272.513C278.484 269.82 280.656 267.641 283.331 267.641C286.006 267.641 288.179 269.82 288.179 272.513Z" fill="#EB5757" stroke="#6FCF97"/>
<path d="M256.5 208.552H427.211V250.526H256.5V208.552Z" fill="#2F80ED" stroke="black"/>
<path d="M311.851 226.257C311.851 224.444 313.32 222.974 315.133 222.974H414.328C416.141 222.974 417.61 224.444 417.61 226.257C417.61 228.07 416.141 229.539 414.328 229.539H315.133C313.32 229.539 311.851 228.07 311.851 226.257Z" fill="#333333"/>
<path d="M311.851 226.257C311.851 224.444 313.32 222.974 315.133 222.974H414.328C416.141 222.974 417.61 224.444 417.61 226.257C417.61 228.07 416.141 229.539 414.328 229.539H315.133C313.32 229.539 311.851 228.07 311.851 226.257Z" fill="#333333"/>
<path d="M311.851 226.257C311.851 224.444 313.32 222.974 315.133 222.974H414.328C416.141 222.974 417.61 224.444 417.61 226.257C417.61 228.07 416.141 229.539 414.328 229.539H315.133C313.32 229.539 311.851 228.07 311.851 226.257Z" fill="#333333"/>
<path d="M311.851 234.314C311.851 233.325 312.652 232.524 313.641 232.524H415.82C416.809 232.524 417.61 233.325 417.61 234.314C417.61 235.303 416.809 236.105 415.82 236.105H313.641C312.652 236.105 311.851 235.303 311.851 234.314Z" fill="#333333"/>
<path d="M311.851 234.314C311.851 233.325 312.652 232.524 313.641 232.524H415.82C416.809 232.524 417.61 233.325 417.61 234.314C417.61 235.303 416.809 236.105 415.82 236.105H313.641C312.652 236.105 311.851 235.303 311.851 234.314Z" fill="#333333"/>
<path d="M311.851 234.314C311.851 233.325 312.652 232.524 313.641 232.524H415.82C416.809 232.524 417.61 233.325 417.61 234.314C417.61 235.303 416.809 236.105 415.82 236.105H313.641C312.652 236.105 311.851 235.303 311.851 234.314Z" fill="#333333"/>
<path d="M288.179 229.539C288.179 232.232 286.006 234.411 283.331 234.411C280.656 234.411 278.484 232.232 278.484 229.539C278.484 226.846 280.656 224.667 283.331 224.667C286.006 224.667 288.179 226.846 288.179 229.539Z" fill="#F2994A" stroke="#6FCF97"/>
<path d="M256.5 165.579H427.211V207.552H256.5V165.579Z" fill="#2F80ED" stroke="black"/>
<path d="M311.851 183.283C311.851 181.47 313.32 180 315.133 180H414.328C416.141 180 417.61 181.47 417.61 183.283C417.61 185.096 416.141 186.565 414.328 186.565H315.133C313.32 186.565 311.851 185.096 311.851 183.283Z" fill="#333333"/>
<path d="M311.851 183.283C311.851 181.47 313.32 180 315.133 180H414.328C416.141 180 417.61 181.47 417.61 183.283C417.61 185.096 416.141 186.565 414.328 186.565H315.133C313.32 186.565 311.851 185.096 311.851 183.283Z" fill="#333333"/>
<path d="M311.851 183.283C311.851 181.47 313.32 180 315.133 180H414.328C416.141 180 417.61 181.47 417.61 183.283C417.61 185.096 416.141 186.565 414.328 186.565H315.133C313.32 186.565 311.851 185.096 311.851 183.283Z" fill="#333333"/>
<path d="M311.851 191.34C311.851 190.351 312.652 189.55 313.641 189.55H415.82C416.809 189.55 417.61 190.351 417.61 191.34C417.61 192.329 416.809 193.131 415.82 193.131H313.641C312.652 193.131 311.851 192.329 311.851 191.34Z" fill="#333333"/>
<path d="M311.851 191.34C311.851 190.351 312.652 189.55 313.641 189.55H415.82C416.809 189.55 417.61 190.351 417.61 191.34C417.61 192.329 416.809 193.131 415.82 193.131H313.641C312.652 193.131 311.851 192.329 311.851 191.34Z" fill="#333333"/>
<path d="M311.851 191.34C311.851 190.351 312.652 189.55 313.641 189.55H415.82C416.809 189.55 417.61 190.351 417.61 191.34C417.61 192.329 416.809 193.131 415.82 193.131H313.641C312.652 193.131 311.851 192.329 311.851 191.34Z" fill="#333333"/>
<path d="M288.179 186.565C288.179 189.258 286.006 191.437 283.331 191.437C280.656 191.437 278.484 189.258 278.484 186.565C278.484 183.873 280.656 181.694 283.331 181.694C286.006 181.694 288.179 183.873 288.179 186.565Z" fill="#219653" stroke="#6FCF97"/>
<path d="M256.5 122.605H427.211V164.579H256.5V122.605Z" fill="#2F80ED" stroke="black"/>
<path d="M311.851 140.309C311.851 138.496 313.32 137.026 315.133 137.026H414.328C416.141 137.026 417.61 138.496 417.61 140.309C417.61 142.122 416.141 143.592 414.328 143.592H315.133C313.32 143.592 311.851 142.122 311.851 140.309Z" fill="#333333"/>
<path d="M311.851 140.309C311.851 138.496 313.32 137.026 315.133 137.026H414.328C416.141 137.026 417.61 138.496 417.61 140.309C417.61 142.122 416.141 143.592 414.328 143.592H315.133C313.32 143.592 311.851 142.122 311.851 140.309Z" fill="#333333"/>
<path d="M311.851 140.309C311.851 138.496 313.32 137.026 315.133 137.026H414.328C416.141 137.026 417.61 138.496 417.61 140.309C417.61 142.122 416.141 143.592 414.328 143.592H315.133C313.32 143.592 311.851 142.122 311.851 140.309Z" fill="#333333"/>
<path d="M311.851 148.367C311.851 147.378 312.652 146.576 313.641 146.576H415.82C416.809 146.576 417.61 147.378 417.61 148.367C417.61 149.355 416.809 150.157 415.82 150.157H313.641C312.652 150.157 311.851 149.355 311.851 148.367Z" fill="#333333"/>
<path d="M311.851 148.367C311.851 147.378 312.652 146.576 313.641 146.576H415.82C416.809 146.576 417.61 147.378 417.61 148.367C417.61 149.355 416.809 150.157 415.82 150.157H313.641C312.652 150.157 311.851 149.355 311.851 148.367Z" fill="#333333"/>
<path d="M311.851 148.367C311.851 147.378 312.652 146.576 313.641 146.576H415.82C416.809 146.576 417.61 147.378 417.61 148.367C417.61 149.355 416.809 150.157 415.82 150.157H313.641C312.652 150.157 311.851 149.355 311.851 148.367Z" fill="#333333"/>
<path d="M288.179 143.592C288.179 146.284 286.006 148.463 283.331 148.463C280.656 148.463 278.484 146.284 278.484 143.592C278.484 140.899 280.656 138.72 283.331 138.72C286.006 138.72 288.179 140.899 288.179 143.592Z" fill="#17B65B" stroke="#6FCF97"/>
<path d="M256.5 79.6309H427.211V121.605H256.5V79.6309Z" fill="#2F80ED" stroke="black"/>
<path d="M311.851 97.3351C311.851 95.5221 313.32 94.0524 315.133 94.0524H414.328C416.141 94.0524 417.61 95.5221 417.61 97.3351C417.61 99.1481 416.141 100.618 414.328 100.618H315.133C313.32 100.618 311.851 99.1481 311.851 97.3351Z" fill="#333333"/>
<path d="M311.851 97.3351C311.851 95.5221 313.32 94.0524 315.133 94.0524H414.328C416.141 94.0524 417.61 95.5221 417.61 97.3351C417.61 99.1481 416.141 100.618 414.328 100.618H315.133C313.32 100.618 311.851 99.1481 311.851 97.3351Z" fill="#333333"/>
<path d="M311.851 97.3351C311.851 95.5221 313.32 94.0524 315.133 94.0524H414.328C416.141 94.0524 417.61 95.5221 417.61 97.3351C417.61 99.1481 416.141 100.618 414.328 100.618H315.133C313.32 100.618 311.851 99.1481 311.851 97.3351Z" fill="#333333"/>
<path d="M311.851 105.393C311.851 104.404 312.652 103.602 313.641 103.602H415.82C416.809 103.602 417.61 104.404 417.61 105.393C417.61 106.382 416.809 107.183 415.82 107.183H313.641C312.652 107.183 311.851 106.382 311.851 105.393Z" fill="#333333"/>
<path d="M311.851 105.393C311.851 104.404 312.652 103.602 313.641 103.602H415.82C416.809 103.602 417.61 104.404 417.61 105.393C417.61 106.382 416.809 107.183 415.82 107.183H313.641C312.652 107.183 311.851 106.382 311.851 105.393Z" fill="#333333"/>
<path d="M311.851 105.393C311.851 104.404 312.652 103.602 313.641 103.602H415.82C416.809 103.602 417.61 104.404 417.61 105.393C417.61 106.382 416.809 107.183 415.82 107.183H313.641C312.652 107.183 311.851 106.382 311.851 105.393Z" fill="#333333"/>
<path d="M288.179 100.618C288.179 103.311 286.006 105.49 283.331 105.49C280.656 105.49 278.484 103.311 278.484 100.618C278.484 97.9251 280.656 95.7461 283.331 95.7461C286.006 95.7461 288.179 97.9251 288.179 100.618Z" fill="#17B65B" stroke="#6FCF97"/>
<path d="M0.5 239.898H222.818V294.5H0.5V239.898Z" fill="#2F80ED" stroke="black"/>
<path d="M223.318 13.9005H238V294.228H223.318V13.9005Z" fill="#2863B1"/>
<path d="M29.7416 0H238V16.9895H0L29.7416 0Z" fill="#2863B1"/>
<path d="M72.6364 262.952C72.6364 260.606 74.538 258.704 76.8837 258.704H205.934C208.28 258.704 210.182 260.606 210.182 262.952C210.182 265.297 208.28 267.199 205.934 267.199H76.8837C74.538 267.199 72.6364 265.297 72.6364 262.952Z" fill="#333333"/>
<path d="M72.6364 262.952C72.6364 260.606 74.538 258.704 76.8837 258.704H205.934C208.28 258.704 210.182 260.606 210.182 262.952C210.182 265.297 208.28 267.199 205.934 267.199H76.8837C74.538 267.199 72.6364 265.297 72.6364 262.952Z" fill="#333333"/>
<path d="M72.6364 262.952C72.6364 260.606 74.538 258.704 76.8837 258.704H205.934C208.28 258.704 210.182 260.606 210.182 262.952C210.182 265.297 208.28 267.199 205.934 267.199H76.8837C74.538 267.199 72.6364 265.297 72.6364 262.952Z" fill="#333333"/>
<path d="M72.6364 273.377C72.6364 272.097 73.6736 271.06 74.9531 271.06H207.865C209.145 271.06 210.182 272.097 210.182 273.377C210.182 274.656 209.145 275.694 207.865 275.694H74.9531C73.6736 275.694 72.6364 274.656 72.6364 273.377Z" fill="#333333"/>
<path d="M72.6364 273.377C72.6364 272.097 73.6736 271.06 74.9531 271.06H207.865C209.145 271.06 210.182 272.097 210.182 273.377C210.182 274.656 209.145 275.694 207.865 275.694H74.9531C73.6736 275.694 72.6364 274.656 72.6364 273.377Z" fill="#333333"/>
<path d="M72.6364 273.377C72.6364 272.097 73.6736 271.06 74.9531 271.06H207.865C209.145 271.06 210.182 272.097 210.182 273.377C210.182 274.656 209.145 275.694 207.865 275.694H74.9531C73.6736 275.694 72.6364 274.656 72.6364 273.377Z" fill="#333333"/>
<path d="M42 267.199C42 270.761 39.1105 273.649 35.5455 273.649C31.9804 273.649 29.0909 270.761 29.0909 267.199C29.0909 263.637 31.9804 260.749 35.5455 260.749C39.1105 260.749 42 263.637 42 267.199Z" fill="#17B65B" stroke="#6FCF97"/>
<path d="M0.5 184.296H222.818V238.898H0.5V184.296Z" fill="#2F80ED" stroke="black"/>
<path d="M72.6364 207.349C72.6364 205.004 74.538 203.102 76.8837 203.102H205.934C208.28 203.102 210.182 205.004 210.182 207.349C210.182 209.695 208.28 211.597 205.934 211.597H76.8837C74.538 211.597 72.6364 209.695 72.6364 207.349Z" fill="#333333"/>
<path d="M72.6364 207.349C72.6364 205.004 74.538 203.102 76.8837 203.102H205.934C208.28 203.102 210.182 205.004 210.182 207.349C210.182 209.695 208.28 211.597 205.934 211.597H76.8837C74.538 211.597 72.6364 209.695 72.6364 207.349Z" fill="#333333"/>
<path d="M72.6364 207.349C72.6364 205.004 74.538 203.102 76.8837 203.102H205.934C208.28 203.102 210.182 205.004 210.182 207.349C210.182 209.695 208.28 211.597 205.934 211.597H76.8837C74.538 211.597 72.6364 209.695 72.6364 207.349Z" fill="#333333"/>
<path d="M72.6364 217.775C72.6364 216.495 73.6736 215.458 74.9531 215.458H207.865C209.145 215.458 210.182 216.495 210.182 217.775C210.182 219.054 209.145 220.092 207.865 220.092H74.9531C73.6736 220.092 72.6364 219.054 72.6364 217.775Z" fill="#333333"/>
<path d="M72.6364 217.775C72.6364 216.495 73.6736 215.458 74.9531 215.458H207.865C209.145 215.458 210.182 216.495 210.182 217.775C210.182 219.054 209.145 220.092 207.865 220.092H74.9531C73.6736 220.092 72.6364 219.054 72.6364 217.775Z" fill="#333333"/>
<path d="M72.6364 217.775C72.6364 216.495 73.6736 215.458 74.9531 215.458H207.865C209.145 215.458 210.182 216.495 210.182 217.775C210.182 219.054 209.145 220.092 207.865 220.092H74.9531C73.6736 220.092 72.6364 219.054 72.6364 217.775Z" fill="#333333"/>
<path d="M42 211.597C42 215.159 39.1105 218.047 35.5455 218.047C31.9804 218.047 29.0909 215.159 29.0909 211.597C29.0909 208.035 31.9804 205.147 35.5455 205.147C39.1105 205.147 42 208.035 42 211.597Z" fill="#17B65B" stroke="#6FCF97"/>
<path d="M0.5 128.694H222.818V183.296H0.5V128.694Z" fill="#2F80ED" stroke="black"/>
<path d="M72.6364 151.747C72.6364 149.402 74.538 147.5 76.8837 147.5H205.934C208.28 147.5 210.182 149.402 210.182 151.747C210.182 154.093 208.28 155.995 205.934 155.995H76.8837C74.538 155.995 72.6364 154.093 72.6364 151.747Z" fill="#333333"/>
<path d="M72.6364 151.747C72.6364 149.402 74.538 147.5 76.8837 147.5H205.934C208.28 147.5 210.182 149.402 210.182 151.747C210.182 154.093 208.28 155.995 205.934 155.995H76.8837C74.538 155.995 72.6364 154.093 72.6364 151.747Z" fill="#333333"/>
<path d="M72.6364 151.747C72.6364 149.402 74.538 147.5 76.8837 147.5H205.934C208.28 147.5 210.182 149.402 210.182 151.747C210.182 154.093 208.28 155.995 205.934 155.995H76.8837C74.538 155.995 72.6364 154.093 72.6364 151.747Z" fill="#333333"/>
<path d="M72.6364 162.173C72.6364 160.893 73.6736 159.856 74.9531 159.856H207.865C209.145 159.856 210.182 160.893 210.182 162.173C210.182 163.452 209.145 164.49 207.865 164.49H74.9531C73.6736 164.49 72.6364 163.452 72.6364 162.173Z" fill="#333333"/>
<path d="M72.6364 162.173C72.6364 160.893 73.6736 159.856 74.9531 159.856H207.865C209.145 159.856 210.182 160.893 210.182 162.173C210.182 163.452 209.145 164.49 207.865 164.49H74.9531C73.6736 164.49 72.6364 163.452 72.6364 162.173Z" fill="#333333"/>
<path d="M72.6364 162.173C72.6364 160.893 73.6736 159.856 74.9531 159.856H207.865C209.145 159.856 210.182 160.893 210.182 162.173C210.182 163.452 209.145 164.49 207.865 164.49H74.9531C73.6736 164.49 72.6364 163.452 72.6364 162.173Z" fill="#333333"/>
<path d="M42 155.995C42 159.557 39.1105 162.445 35.5455 162.445C31.9804 162.445 29.0909 159.557 29.0909 155.995C29.0909 152.433 31.9804 149.544 35.5455 149.544C39.1105 149.544 42 152.433 42 155.995Z" fill="#EB5757" stroke="#6FCF97"/>
<path d="M0.5 73.0916H222.818V127.694H0.5V73.0916Z" fill="#2F80ED" stroke="black"/>
<path d="M72.6364 96.1453C72.6364 93.7995 74.538 91.8979 76.8837 91.8979H205.934C208.28 91.8979 210.182 93.7995 210.182 96.1453C210.182 98.491 208.28 100.393 205.934 100.393H76.8837C74.538 100.393 72.6364 98.491 72.6364 96.1453Z" fill="#333333"/>
<path d="M72.6364 96.1453C72.6364 93.7995 74.538 91.8979 76.8837 91.8979H205.934C208.28 91.8979 210.182 93.7995 210.182 96.1453C210.182 98.491 208.28 100.393 205.934 100.393H76.8837C74.538 100.393 72.6364 98.491 72.6364 96.1453Z" fill="#333333"/>
<path d="M72.6364 96.1453C72.6364 93.7995 74.538 91.8979 76.8837 91.8979H205.934C208.28 91.8979 210.182 93.7995 210.182 96.1453C210.182 98.491 208.28 100.393 205.934 100.393H76.8837C74.538 100.393 72.6364 98.491 72.6364 96.1453Z" fill="#333333"/>
<path d="M72.6364 106.571C72.6364 105.291 73.6736 104.254 74.9531 104.254H207.865C209.145 104.254 210.182 105.291 210.182 106.571C210.182 107.85 209.145 108.887 207.865 108.887H74.9531C73.6736 108.887 72.6364 107.85 72.6364 106.571Z" fill="#333333"/>
<path d="M72.6364 106.571C72.6364 105.291 73.6736 104.254 74.9531 104.254H207.865C209.145 104.254 210.182 105.291 210.182 106.571C210.182 107.85 209.145 108.887 207.865 108.887H74.9531C73.6736 108.887 72.6364 107.85 72.6364 106.571Z" fill="#333333"/>
<path d="M72.6364 106.571C72.6364 105.291 73.6736 104.254 74.9531 104.254H207.865C209.145 104.254 210.182 105.291 210.182 106.571C210.182 107.85 209.145 108.887 207.865 108.887H74.9531C73.6736 108.887 72.6364 107.85 72.6364 106.571Z" fill="#333333"/>
<path d="M42 100.393C42 103.955 39.1105 106.843 35.5455 106.843C31.9804 106.843 29.0909 103.955 29.0909 100.393C29.0909 96.8306 31.9804 93.9424 35.5455 93.9424C39.1105 93.9424 42 96.8306 42 100.393Z" fill="#17B65B" stroke="#6FCF97"/>
<path d="M0.5 17.4895H222.818V72.0916H0.5V17.4895Z" fill="#2F80ED" stroke="black"/>
<path d="M72.6364 40.5432C72.6364 38.1975 74.538 36.2958 76.8837 36.2958H205.934C208.28 36.2958 210.182 38.1975 210.182 40.5432C210.182 42.889 208.28 44.7906 205.934 44.7906H76.8837C74.538 44.7906 72.6364 42.889 72.6364 40.5432Z" fill="#333333"/>
<path d="M72.6364 40.5432C72.6364 38.1975 74.538 36.2958 76.8837 36.2958H205.934C208.28 36.2958 210.182 38.1975 210.182 40.5432C210.182 42.889 208.28 44.7906 205.934 44.7906H76.8837C74.538 44.7906 72.6364 42.889 72.6364 40.5432Z" fill="#333333"/>
<path d="M72.6364 40.5432C72.6364 38.1975 74.538 36.2958 76.8837 36.2958H205.934C208.28 36.2958 210.182 38.1975 210.182 40.5432C210.182 42.889 208.28 44.7906 205.934 44.7906H76.8837C74.538 44.7906 72.6364 42.889 72.6364 40.5432Z" fill="#333333"/>
<path d="M72.6364 50.9686C72.6364 49.6891 73.6736 48.6519 74.9531 48.6519H207.865C209.145 48.6519 210.182 49.6891 210.182 50.9686C210.182 52.2481 209.145 53.2854 207.865 53.2854H74.9531C73.6736 53.2854 72.6364 52.2481 72.6364 50.9686Z" fill="#333333"/>
<path d="M72.6364 50.9686C72.6364 49.6891 73.6736 48.6519 74.9531 48.6519H207.865C209.145 48.6519 210.182 49.6891 210.182 50.9686C210.182 52.2481 209.145 53.2854 207.865 53.2854H74.9531C73.6736 53.2854 72.6364 52.2481 72.6364 50.9686Z" fill="#333333"/>
<path d="M72.6364 50.9686C72.6364 49.6891 73.6736 48.6519 74.9531 48.6519H207.865C209.145 48.6519 210.182 49.6891 210.182 50.9686C210.182 52.2481 209.145 53.2854 207.865 53.2854H74.9531C73.6736 53.2854 72.6364 52.2481 72.6364 50.9686Z" fill="#333333"/>
<path d="M42 44.7906C42 48.3527 39.1105 51.2409 35.5455 51.2409C31.9804 51.2409 29.0909 48.3527 29.0909 44.7906C29.0909 41.2285 31.9804 38.3403 35.5455 38.3403C39.1105 38.3403 42 41.2285 42 44.7906Z" fill="#17B65B" stroke="#6FCF97"/>
</svg>
